<?xml version="1.0" standalone="no"?>
<!DOCTYPE svg PUBLIC "-//W3C//DTD SVG 20010904//EN"
 "http://www.w3.org/TR/2001/REC-SVG-20010904/DTD/svg10.dtd">
<svg version="1.0" xmlns="http://www.w3.org/2000/svg"
 width="640.000000pt" height="640.000000pt" viewBox="0 0 640.000000 640.000000"
 preserveAspectRatio="xMidYMid meet">
<metadata>
Created by potrace 1.16, written by Peter Selinger 2001-2019
</metadata>
<g transform="translate(0.000000,640.000000) scale(0.100000,-0.100000)"
fill="#000000" stroke="none">
<path d="M1350 2635 l0 -397 198 4 199 3 42 28 c89 59 126 233 103 478 -13
143 -42 206 -110 247 -46 27 -50 27 -239 30 l-193 4 0 -397z m306 224 c17 -19
19 -41 22 -203 4 -216 -3 -253 -51 -263 -78 -17 -72 -37 -75 240 l-2 247 43 0
c32 0 49 -6 63 -21z"/>
<path d="M2520 2635 l0 -395 100 0 100 0 0 160 0 160 125 0 125 0 0 80 0 80
-92 1 c-51 0 -106 2 -123 2 l-30 2 -1 68 -2 67 134 0 134 0 0 85 0 85 -235 0
-235 0 0 -395z"/>
<path d="M3050 2955 l0 -75 100 0 100 0 0 75 0 75 -100 0 -100 0 0 -75z"/>
<path d="M2095 2835 c-47 -17 -96 -69 -114 -122 -7 -21 -15 -84 -18 -140 -9
-172 24 -279 99 -320 26 -14 57 -18 148 -18 102 0 119 2 152 23 41 25 73 84
84 150 l7 42 -92 0 -91 0 0 -29 c0 -17 -10 -42 -24 -58 -24 -27 -26 -27 -53
-13 -26 14 -28 21 -31 83 l-3 67 138 1 c76 1 141 1 146 0 11 -2 8 158 -3 200
-29 103 -99 149 -225 149 -44 -1 -98 -7 -120 -15z"/>
<path d="M3050 2540 l0 -300 100 0 100 0 0 300 0 300 -100 0 -100 0 0 -300z"/>
</g>
</svg>
